HIERARCHY
ROOT Hips
{
	OFFSET 51.931000 -24.428915 93.979294
	CHANNELS 6 Xposition Yposition Zposition Xrotation Yrotation Zrotation
	JOINT spine
	{
		OFFSET 0.000000 -0.429888 7.475601
		CHANNELS 3 Xrotation Yrotation Zrotation
		JOINT spine1
		{
			OFFSET 0.000000 -0.000002 9.923012
			CHANNELS 3 Xrotation Yrotation Zrotation
			JOINT spine2
			{
				OFFSET 0.000000 0.000000 9.508041
				CHANNELS 3 Xrotation Yrotation Zrotation
				JOINT Neck
				{
					OFFSET 0.000000 -1.163843 24.411110
					CHANNELS 3 Xrotation Yrotation Zrotation
					JOINT Head
					{
						OFFSET 0.000000 -0.000002 7.375229
						CHANNELS 3 Xrotation Yrotation Zrotation
						End Site
						{
							OFFSET 0.000000 5.887405 17.852203
						}
					}
				}
				JOINT RightShoulder
				{
					OFFSET -4.003559 0.557467 10.267906
					CHANNELS 3 Xrotation Yrotation Zrotation
					JOINT RightArm
					{
						OFFSET 0.000000 -0.000002 13.467300
						CHANNELS 3 Xrotation Yrotation Zrotation
						JOINT RightArmRoll
						{
							OFFSET 0.000000 -0.000002 6.798584
							CHANNELS 3 Xrotation Yrotation Zrotation
							JOINT RightForeArm
							{
								OFFSET 0.000000 -0.000004 19.801804
								CHANNELS 3 Xrotation Yrotation Zrotation
								JOINT RightForeArmRoll
								{
									OFFSET 0.000000 0.000000 7.629044
									CHANNELS 3 Xrotation Yrotation Zrotation
									JOINT RightHand
									{
										OFFSET 0.000000 -0.000004 15.309799
										CHANNELS 3 Xrotation Yrotation Zrotation
										End Site
										{
											OFFSET 0.000000 0.000000 0.100006
										}
									}
								}
							}
						}
					}
				}
				JOINT LeftShoulder
				{
					OFFSET 4.003559 0.557467 10.267906
					CHANNELS 3 Xrotation Yrotation Zrotation
					JOINT LeftArm
					{
						OFFSET 0.000000 -0.000002 13.467300
						CHANNELS 3 Xrotation Yrotation Zrotation
						JOINT LeftArmRoll
						{
							OFFSET 0.000000 -0.000002 6.798584
							CHANNELS 3 Xrotation Yrotation Zrotation
							JOINT LeftForeArm
							{
								OFFSET 0.000000 -0.000004 19.801804
								CHANNELS 3 Xrotation Yrotation Zrotation
								JOINT LeftForeArmRoll
								{
									OFFSET 0.000000 0.000000 7.629044
									CHANNELS 3 Xrotation Yrotation Zrotation
									JOINT LeftHand
									{
										OFFSET 0.000000 -0.000004 15.309799
										CHANNELS 3 Xrotation Yrotation Zrotation
										End Site
										{
											OFFSET 0.000000 0.000000 0.100006
										}
									}
								}
							}
						}
					}
				}
			}
		}
	}
	JOINT RightUpLeg
	{
		OFFSET -6.626091 1.019270 -1.215042
		CHANNELS 3 Xrotation Yrotation Zrotation
		JOINT RightUpLegRoll
		{
			OFFSET 0.000000 -0.000002 17.951698
			CHANNELS 3 Xrotation Yrotation Zrotation
			JOINT RightLeg
			{
				OFFSET 0.000000 0.000002 -22.230400
				CHANNELS 3 Xrotation Yrotation Zrotation
				JOINT RightLegRoll
				{
					OFFSET 0.000000 -0.000002 22.303200
					CHANNELS 3 Xrotation Yrotation Zrotation
					JOINT RightFoot
					{
						OFFSET 0.000000 -0.000004 18.563606
						CHANNELS 3 Xrotation Yrotation Zrotation
						JOINT RightToeBase
						{
							OFFSET 0.000000 -0.000002 15.518295
							CHANNELS 3 Xrotation Yrotation Zrotation
							End Site
							{
								OFFSET 0.006577 0.866261 7.515381
							}
						}
					}
				}
			}
		}
	}
	JOINT LeftUpLeg
	{
		OFFSET 6.626091 1.019270 -1.215042
		CHANNELS 3 Xrotation Yrotation Zrotation
		JOINT LeftUpLegRoll
		{
			OFFSET 0.000000 -0.000002 17.951797
			CHANNELS 3 Xrotation Yrotation Zrotation
			JOINT LeftLeg
			{
				OFFSET 0.000000 -0.000004 22.230301
				CHANNELS 3 Xrotation Yrotation Zrotation
				JOINT LeftLegRoll
				{
					OFFSET 0.000000 -0.000004 22.509308
					CHANNELS 3 Xrotation Yrotation Zrotation
					JOINT LeftFoot
					{
						OFFSET 0.000000 -0.000004 18.357498
						CHANNELS 3 Xrotation Yrotation Zrotation
						JOINT LeftToeBase
						{
							OFFSET 0.000000 -0.000002 15.518295
							CHANNELS 3 Xrotation Yrotation Zrotation
							End Site
							{
								OFFSET -0.029476 0.866261 7.515381
							}
						}
					}
				}
			}
		}
	}
}
MOTION
Frames: 9
Frame Time: 0.041667
51.435799 12.381277 61.192200 -26.833622 1.677365 -7.784898 4.003105 0.538629 -0.775294 12.016441 1.022439 -1.577871 13.661337 1.003344 -1.589988 2.974838 19.464610 5.029403 3.357682 -19.056404 5.048919 9.876195 -62.176066 10.887799 -60.374870 -127.704839 -34.814509 -0.000000 -0.000003 -0.000006 0.001245 0.597574 -1.480425 -0.000007 -0.000017 -3.052152 -5.000127 -8.000098 0.000006 -33.639061 72.999628 38.454026 -78.312169 109.029620 54.834289 0.000001 0.000001 0.000001 0.041763 1.676190 0.806063 0.000001 0.000007 3.010881 -5.000142 7.999920 -0.000024 -53.952996 167.003712 7.664961 179.999991 0.000005 -2.824005 92.174933 6.146763 0.269214 -0.000005 -0.000008 2.269550 63.226358 7.407257 1.328681 28.340333 -7.438110 -1.607489 -51.473696 166.482774 -12.188235 -0.000005 -0.000004 -1.806902 -87.647364 -4.490560 0.903053 0.000001 -0.000002 -2.297960 65.775377 -8.297947 1.023732 33.562867 7.283082 -1.025336 
51.441399 12.397779 61.196991 -26.849033 1.691058 -7.795574 4.005264 0.533214 -0.777095 12.020698 1.010745 -1.582909 13.665586 0.991598 -1.594891 3.032701 19.528884 5.033046 3.329907 -19.072880 5.051129 9.856694 -62.094274 10.880213 -60.250349 -127.755574 -34.707804 0.000002 -0.000002 -0.000005 0.001570 0.596542 -1.480466 -0.000005 -0.000017 -3.051649 -5.000123 -8.000099 0.000007 -33.646731 73.068162 38.456653 -78.512526 108.992552 55.032644 0.000000 0.000001 0.000003 0.070051 1.695608 0.806187 0.000002 0.000007 3.010880 -5.000142 7.999920 -0.000023 -53.947395 166.994942 7.668504 179.999991 0.000005 -2.824005 92.174625 6.144221 0.268276 -0.000005 -0.000008 2.269550 63.220934 7.407239 1.328347 28.291841 -7.435644 -1.580732 -51.468447 166.465726 -12.183465 -0.000005 -0.000004 -1.806849 -87.642023 -4.492615 0.902210 0.000000 -0.000002 -2.297121 65.734922 -8.298866 1.020264 33.587920 7.282652 -1.028357 
51.439999 12.396490 61.193092 -26.864049 1.705075 -7.806303 4.007352 0.527687 -0.779003 12.024752 0.998787 -1.588237 13.669737 0.979589 -1.600077 3.090388 19.594742 5.037165 3.303145 -19.089438 5.053879 9.837873 -62.010297 10.873756 -60.123389 -127.807019 -34.597893 0.000004 -0.000003 -0.000007 0.001892 0.596386 -1.480531 -0.000008 -0.000016 -3.051147 -5.000125 -8.000099 0.000009 -33.656669 73.138403 38.461550 -78.717227 108.954659 55.234169 -0.000000 0.000002 0.000004 0.098291 1.714427 0.806286 0.000001 0.000007 3.010879 -5.000145 7.999921 -0.000023 -53.941795 166.985503 7.672243 179.999991 0.000005 -2.825003 92.174762 6.141520 0.268320 -0.000005 -0.000009 2.269490 63.215218 7.407249 1.328041 28.244362 -7.433300 -1.554548 -51.463204 166.448636 -12.178499 -0.000005 -0.000004 -1.806781 -87.636573 -4.494623 0.901360 -0.000000 -0.000003 -2.296360 65.694972 -8.299680 1.016556 33.612563 7.282215 -1.031330 
51.438599 12.382090 61.170090 -26.878973 1.719312 -7.817085 4.009371 0.522078 -0.780986 12.028808 0.986644 -1.593755 13.673689 0.967387 -1.605452 3.147985 19.661570 5.041555 3.277091 -19.106180 5.057020 9.819603 -61.924906 10.868156 -59.993902 -127.859133 -34.484706 0.000002 -0.000002 -0.000005 0.002221 0.596848 -1.480614 -0.000009 -0.000017 -3.050661 -5.000125 -8.000098 0.000009 -33.668318 73.209881 38.468158 -78.925903 108.916300 55.438651 0.000001 0.000001 0.000005 0.126499 1.732807 0.806364 0.000001 0.000007 3.010880 -5.000144 7.999921 -0.000023 -53.936283 166.975463 7.676355 179.999991 0.000004 -2.826000 92.175206 6.138711 0.267353 -0.000005 -0.000008 2.269410 63.209385 7.407236 1.327637 28.197502 -7.431069 -1.528757 -51.458164 166.430946 -12.172733 -0.000005 -0.000004 -1.806699 -87.631033 -4.496571 0.900715 0.000000 -0.000003 -2.295650 65.655535 -8.300433 1.012800 33.636810 7.281777 -1.034246 
51.439499 12.389688 61.173302 -26.893805 1.733690 -7.827879 4.011366 0.516423 -0.783014 12.032766 0.974395 -1.599386 13.677640 0.955081 -1.610936 3.205537 19.729172 5.046046 3.251458 -19.123013 5.060380 9.801677 -61.838675 10.863086 -59.864614 -127.911289 -34.371735 0.000000 -0.000002 -0.000006 0.002543 0.597668 -1.480695 -0.000010 -0.000017 -3.050169 -5.000125 -8.000098 0.000008 -33.680933 73.282029 38.475709 -79.137311 108.877778 55.645336 0.000000 0.000001 0.000003 0.154690 1.750955 0.806424 0.000001 0.000007 3.010881 -5.000142 7.999920 -0.000024 -53.930672 166.965381 7.680211 179.999991 0.000005 -2.826000 92.175793 6.135957 0.267373 -0.000004 -0.000008 2.269311 63.203360 7.407273 1.327258 28.151055 -7.428919 -1.503186 -51.453225 166.413283 -12.166841 -0.000004 -0.000004 -1.806600 -87.625439 -4.498488 0.900081 -0.000000 -0.000002 -2.294980 65.616220 -8.301199 1.009047 33.660856 7.281343 -1.037136 
51.442799 12.383196 61.169983 -26.908536 1.748101 -7.838679 4.013338 0.510755 -0.785050 12.036623 0.962114 -1.605045 13.681589 0.942743 -1.616443 3.263122 19.796851 5.050472 3.225925 -19.139841 5.063775 9.783948 -61.752130 10.858253 -59.734505 -127.964113 -34.257480 0.000001 -0.000003 -0.000007 0.002869 0.598584 -1.480791 -0.000007 -0.000017 -3.049679 -5.000127 -8.000099 0.000005 -33.693962 73.354374 38.483652 -79.349805 108.839303 55.852923 0.000001 0.000002 0.000004 0.182877 1.769021 0.806463 0.000003 0.000007 3.010882 -5.000144 7.999921 -0.000024 -53.924883 166.955887 7.683177 179.999991 0.000005 -2.826998 92.176483 6.133162 0.266392 -0.000004 -0.000008 2.269210 63.197425 7.407239 1.326955 28.104709 -7.426832 -1.477685 -51.448004 166.396208 -12.161794 -0.000006 -0.000003 -1.806511 -87.619914 -4.500323 0.899332 0.000000 -0.000002 -2.294309 65.577001 -8.301946 1.005308 33.684895 7.280895 -1.040023 
51.442699 12.384493 61.165585 -26.923269 1.762472 -7.849460 4.015338 0.505108 -0.787069 12.040579 0.949881 -1.610646 13.685541 0.930455 -1.621911 3.320790 19.864407 5.054638 3.200209 -19.156565 5.067062 9.766219 -61.666001 10.853323 -59.605975 -128.016733 -34.145280 0.000004 -0.000002 -0.000006 0.003198 0.599336 -1.480875 -0.000007 -0.000016 -3.049180 -5.000124 -8.000098 0.000008 -33.706591 73.426350 38.491145 -79.562217 108.801471 56.060598 0.000001 0.000001 0.000003 0.211071 1.787208 0.806486 0.000000 0.000007 3.010880 -5.000143 7.999920 -0.000025 -53.919378 166.945847 7.687093 179.999991 0.000005 -2.827993 92.177037 6.130312 0.266410 -0.000005 -0.000008 2.269121 63.191373 7.407233 1.326666 28.058168 -7.424766 -1.452082 -51.443076 166.378545 -12.155910 -0.000004 -0.000003 -1.806410 -87.614340 -4.502249 0.898594 0.000000 -0.000002 -2.293630 65.537694 -8.302688 1.001460 33.708937 7.280456 -1.042913 
51.445400 12.399981 61.160706 -26.938191 1.776684 -7.860196 4.017363 0.499515 -0.789033 12.044636 0.937775 -1.616113 13.689494 0.918293 -1.627227 3.378602 19.931134 5.058389 3.173988 -19.173299 5.070051 9.748335 -61.580883 10.848020 -59.479227 -128.069312 -34.035195 0.000000 -0.000002 -0.000006 0.003519 0.599668 -1.480948 -0.000011 -0.000018 -3.048689 -5.000123 -8.000099 0.000009 -33.718277 73.497494 38.497630 -79.773707 108.764328 56.267918 0.000001 0.000000 0.000001 0.239291 1.805695 0.806493 0.000002 0.000007 3.010879 -5.000142 7.999921 -0.000025 -53.913682 166.936367 7.690478 179.999991 0.000005 -2.827995 92.177412 6.127634 0.265444 -0.000004 -0.000009 2.269040 63.185547 7.407218 1.326363 28.011128 -7.422717 -1.426195 -51.437864 166.361442 -12.150857 -0.000005 -0.000004 -1.806330 -87.608828 -4.504193 0.897950 0.000000 -0.000002 -2.292910 65.498085 -8.303489 0.997777 33.733276 7.280012 -1.045841 
51.446400 12.397692 61.158394 -26.953327 1.790657 -7.870875 4.019464 0.494012 -0.790915 12.048798 0.925873 -1.621365 13.693647 0.906338 -1.632335 3.436633 19.996735 5.061555 3.146963 -19.189944 5.072595 9.730089 -61.497329 10.841976 -59.355553 -128.121494 -33.928866 0.000002 -0.000003 -0.000006 0.003843 0.599314 -1.481012 -0.000007 -0.000018 -3.048190 -5.000124 -8.000097 0.000009 -33.728570 73.567373 38.502654 -79.982922 108.728245 56.473978 0.000001 0.000001 0.000003 0.267543 1.824641 0.806483 0.000001 0.000007 3.010882 -5.000145 7.999921 -0.000024 -53.908183 166.926955 7.694359 179.999991 0.000005 -2.829005 92.177426 6.124975 0.265494 -0.000004 -0.000008 2.269001 63.179933 7.407243 1.325952 27.963267 -7.420658 -1.399874 -51.432841 166.343725 -12.145206 -0.000004 -0.000004 -1.806271 -87.603364 -4.506276 0.897007 0.000001 -0.000002 -2.292130 65.458060 -8.304290 0.994059 33.758029 7.279570 -1.048821 
